<?xml version="1.0" standalone="no"?><!DOCTYPE svg PUBLIC "-//W3C//DTD SVG 1.1//EN" "http://www.w3.org/Graphics/SVG/1.1/DTD/svg11.dtd"><svg t="1707105315223" class="icon" viewBox="0 0 1024 1024" version="1.1" xmlns="http://www.w3.org/2000/svg" p-id="6615" xmlns:xlink="http://www.w3.org/1999/xlink" width="200" height="200"><path d="M896 768H256.512C236.8 768.512 213.333333 776.32 213.333333 810.666667c0 34.346667 23.466667 42.154667 43.178667 42.666666H896v85.333334H256c-51.456 0-128-34.090667-128-128V213.333333c0-93.909333 76.544-128 128-128h554.666667a85.333333 85.333333 0 0 1 85.333333 85.333334v597.333333zM361.685333 241.066667c-24.064-18.602667-32.810667-58.752-34.133333-76.544-2.773333 6.826667-7.978667 21.888-6.826667 27.306666a20.48 20.48 0 0 0 4.053334 9.6l-1.365334 9.557334c5.546667 46.421333 73.6 87.466667 101.632 104.405333 6.656 3.968 11.050667 6.656 11.818667 7.68a55.466667 55.466667 0 0 1 6.826667 13.653333c9.856 2.218667 26.88 16.426667 34.176 23.253334-12.288-4.096-21.845333 10.965333-17.749334 13.653333 4.096 2.773333 6.826667 26.026667 6.826667 34.176v131.242667c4.992 4.565333 13.653333 14.506667 8.192 17.749333-5.461333 3.285333-5.930667 13.226667-5.461333 17.792h-12.288c-5.504 49.194667-38.741333 78.805333-54.698667 87.466667h21.888l9.557333-6.826667 4.096 6.826667h140.8c-19.157333-8.192-23.253333-32.810667-23.253333-45.098667v-103.893333h34.176l4.096-8.192 4.096 8.192c17.792 1.834667 60.416-4.906667 88.874667-46.464 28.416-41.557333 13.653333-90.197333 2.730666-109.354667h-12.330666V340.906667c-17.749333-21.888-60.16-35.541333-110.677334-35.541334-50.602667 0-62.890667-2.730667-82.048-28.714666-15.274667-20.778667 0-57.856 9.6-73.813334-12.032 5.461333-20.48 14.122667-23.253333 17.792-1.109333-29.525333 15.018667-67.925333 23.253333-83.413333-53.589333 65.621333-47.872 137.6-38.272 165.418667-7.68-1.109333-36.010667-17.792-49.237333-25.984-4.352-16.384 4.565333-53.333333 9.6-69.717334-17.493333 12.032-27.349333 43.306667-30.08 57.429334-4.394667-1.109333-14.592-9.6-19.157333-13.653334h-5.461334V241.066667z m192.725334 155.818666v-39.637333c15.957333-1.365333 50.602667 2.730667 61.525333 30.08 10.922667 27.306667-0.896 53.333333-8.192 62.890667v9.557333l-4.096-1.365333c-10.965333 17.493333-37.376 29.141333-49.237333 32.810666V413.312l-4.096-9.6 4.096-6.826667z" p-id="6616" fill="#d4237a"></path></svg>