<?xml version="1.0" standalone="no"?><!DOCTYPE svg PUBLIC "-//W3C//DTD SVG 1.1//EN" "http://www.w3.org/Graphics/SVG/1.1/DTD/svg11.dtd"><svg t="1707104961131" class="icon" viewBox="0 0 1744 1024" version="1.1" xmlns="http://www.w3.org/2000/svg" p-id="5434" xmlns:xlink="http://www.w3.org/1999/xlink" width="340.625" height="200"><path d="M0 0h0.148048C0.123373 0.049349 0.049349 0.123373 0 0.148048V0zM827.046554 64.869783c10.437398-18.826795 20.825446-37.678265 30.991422-56.653108 9.721831 17.346313 19.320289 34.766651 28.968096 52.162313 2.46747 4.737542 5.35441 10.388048 2.960964 15.742458-4.786892 11.004916-15.569735 19.418988-16.359325 32.052434-0.37012 14.75547-0.024675 29.486265-0.074024 44.241734l9.203662-0.098698v9.376385l-9.104963-0.197397c-0.197398 16.186602-0.296096 32.373205-0.024675 48.559807 0.345446 10.338699 10.215325 16.112578 17.815132 21.294265 2.862265-8.290699 5.181687-17.913831 12.978892-23.046169 11.745157-6.538795 26.451277-6.144 38.541879-0.616867 0.690892-2.911614 1.406458-5.798554 2.122025-8.710169 19.394313 1.529831 37.110747 11.07894 52.507759 22.404627 7.303711 5.77388 15.051566 11.91788 18.80212 20.702072 2.196048 12.041253-7.007614 21.68906-13.324337 30.818699 5.206361 16.852819 10.906217 33.55759 16.087903 50.435084-19.591711-10.017928-38.912-20.504675-58.602409-30.325205-0.320771-1.110361-0.962313-3.331084-1.307759-4.441446-4.688193 3.923277-10.042602 8.266024-16.556723 7.624482-9.672482 0.049349-15.915181-8.414072-22.873446-13.842506-0.049349 7.747855-0.049349 15.495711-0.074024 23.243567 7.797205 3.084337 15.693108 5.946602 23.342265 9.425735-2.270072 7.599807-4.145349 15.298313-6.020627 23.021493 26.500627 0.172723 53.025928-0.567518 79.526555 0.764916 22.281253 1.455807 44.562506-1.283084 66.843759-0.690891 6.834892 0.024675 11.819181 5.206361 16.926843 9.006265 21.442313-13.423036 46.487133-20.554024 66.424289-36.419856 17.296964-15.841157 28.25253-37.431518 46.339085-52.606458 7.673831-7.056964 17.395663-12.115277 27.882409-12.954216 29.584964-2.738892 59.268627 1.702554 88.853591-0.024675 36.247133-2.738892 69.187855-19.813783 104.373975-27.438265-1.776578 6.045301-3.553157 12.065928-5.231036 18.111229 49.768867-5.30506 99.09359-15.520386 146.469012-31.781012 46.289735-17.124241 86.410795-47.128675 132.034314-65.758073 1.801253 1.480482 3.602506 2.985639 5.403759 4.490796-4.786892 4.737542-8.364723 10.486747-11.991904 16.112578-15.076241 22.305928-30.127807 44.587181-45.179373 66.893108 14.064578 1.159711 28.203181 0.345446 42.317108 0.789591-16.655422 15.59441-34.890024 29.51094-51.57012 45.080674 6.637494 3.183036 13.96588 4.88559 20.331951 8.685494 7.106313 6.711518 3.651855 18.259277-4.392096 22.602024-22.379952 13.941205-49.077976 19.517687-75.109783 21.220241 8.142651 7.279036 16.384 14.410024 24.52665 21.664386-16.433349 21.541012-45.450795 24.798072-70.594313 24.625349 14.385349 14.854169 29.905735 28.597976 44.611856 43.156049l-2.960964 6.316722c-23.243566 2.689542-46.487133 5.477783-69.706024 8.488097 6.908916 10.264675 13.842506 20.825446 16.482698 33.113446-2.664867 2.763566-5.35441 6.588145-9.721831 6.045301-16.235952 0.197398-32.471904 0-48.707855 0.049349 1.135036 15.742458-1.751904 31.213494-4.663518 46.585831-4.614169-0.172723-9.228337-0.296096-13.817832-0.419469-0.049349 29.436916 0 58.849157 0 88.286072 17.296964 1.011663 34.470554-0.937639 51.397398-4.51547-7.279036 17.420337-21.960482 30.645976-38.12241 39.726265-7.673831 4.268723-16.309976 6.736193-25.094168 6.736193-76.491566 0.049349-152.983133 0.024675-229.474699 0.024675-22.922795-0.641542-46.289735 2.097349-68.79306-3.479133-18.333301-4.540145-35.432867-12.830843-52.261013-21.26959-5.058313-2.664867-12.090602-4.219373-16.680096 0.148048-10.24 8.882892-14.410024 22.256578-21.392964 33.483566-6.56347 11.152964-15.939855 20.257928-25.562988 28.795374 5.453108-0.049349 10.930892-0.049349 16.384-0.04935 0 5.798554 0.024675 11.621783-0.296096 17.445012-4.490795-4.021976-4.244048-12.559422-10.906217-13.842506-6.908916-2.245398-12.978892 2.88694-18.283952 6.464771-0.098699 5.280386-0.148048 10.536096-0.172723 15.841157 4.244048-0.024675 8.512771-0.024675 12.806169-0.024675 1.381783-3.429783 1.085687-8.266024 4.984289-10.091952 0.197398 8.290699 0.271422 16.581398-0.148048 24.872097-2.319422-2.590843-3.30641-5.921928-4.910265-8.882892-3.577831-2.812916-8.537446-1.061012-12.682795-1.653205-0.024675 8.241349-0.024675 16.507373 0 24.773398 7.77253-0.41947 16.655422 1.603855 23.539662-2.960964 2.615518-4.268723 4.416771-9.055614 7.525783-13.028241-0.098699 6.810217-0.616867 13.620434-1.307759 20.405976-16.507373-1.480482-33.014747 0.37012-49.546795-0.172723-0.320771-5.058313 4.638843-4.51547 8.043952-5.181687v-34.223807c-13.373687 10.437398-26.796723 20.85012-39.380819 32.249832 0.740241-11.671133-2.41812-23.687711 0.296096-35.112097 8.068627-14.360675 21.68906-24.94612 28.696675-40.022361 6.662169-14.558072 6.884241-30.917398 6.785542-46.635181-17.667084 22.824096-36.888675 44.957301-60.527036 61.834795-8.833542 5.823229-18.160578 11.325687-28.647325 13.447711-0.468819-3.503807-0.912964-6.98294-1.332434-10.462072-19.567036-0.468819-39.084723 0.83894-58.60241 0.444144-0.197398 4.367422-0.296096 8.759518-0.320771 13.151615 7.081639-0.246747 2.270072 7.427084 3.010313 11.177638-12.732145-3.824578-17.025542-18.456675-28.696674-23.68771-6.859566-2.072675-14.212627-0.764916-21.269591-1.036338-0.888289 0.986988-2.689542 2.960964-3.602506 3.947952-27.46294-6.341398-42.662554-32.052434-54.901204-55.098602-7.130988 5.35441-14.360675 10.560771-21.466988 15.939855 5.823229 11.695807 11.301012 23.564337 17.17359 35.23547-14.163277-0.493494-28.277205 0.616867-42.415807 0.592193-6.341398-9.795855-12.830843-19.665735-21.343615-27.734362-3.67653-3.553157-8.61147-5.921928-13.817831-5.576482-25.538313-0.049349-51.101301 0-76.664289-0.024674a23.263306 23.263306 0 0 0-18.90082 8.14265c-10.832193 12.312675-17.790458 27.783711-30.522602 38.443181-5.576482-17.765783-17.099566-33.212145-32.151132-44.093687-26.895422-19.789108-59.095904-30.127807-89.050988-44.241735-15.915181 8.882892-32.249831 17.074892-48.979278 24.279904-16.433349 6.760867-33.631614 13.521735-51.718168 12.584096-19.295614-0.098699-37.579566-7.130988-56.653109-8.882891-0.394795-27.907084-0.074024-55.814169-0.172723-83.721253 4.490795 1.899952 9.006265 3.750554 13.521735 5.625831-0.394795-23.465639 0.740241-46.906602 0.641543-70.347566-3.084337-0.024675-6.144-0.024675-9.228338-0.024675v-14.163277c-18.580048-0.049349-37.160096 0.024675-55.740144-0.04935 3.232386-15.446361 6.760867-30.818699 10.141301-46.240385-14.854169 0.222072-29.955084 0.394795-44.389783-3.651855-8.808867-2.714217-19.098217-2.960964-25.982458-9.845205 13.891855-12.510072 27.586313-25.266892 41.650891-37.554892-18.456675-0.937639-37.431518-3.627181-53.914216-12.485397-5.897253-3.331084-12.238651-9.86988-10.511422-17.099567 5.601157-7.476434 14.878843-10.856867 22.330602-16.161927-32.175807-2.146699-65.190554-13.274988-87.965301-36.938025 10.388048-4.219373 21.343614-6.785542 32.052434-10.042602-17.099566-15.298313-35.23547-29.436916-52.927229-44.069012 0.814265-1.036337 2.393446-3.084337 3.207711-4.096 12.090602-1.579181 24.279904-2.442795 36.44453-3.577831-11.177639-15.372337-25.069494-28.721349-34.791325-45.154699-6.859566-11.473735-10.24-24.650024-11.819181-37.801639 43.526169 14.558072 79.872 44.784578 123.496867 59.120579 46.240386 13.867181 94.652145 19.048867 140.596434 33.878361 0.616867-3.947952-0.888289-8.784193 2.072675-12.041253 3.972627-3.873928 10.017928-3.25706 15.076241-2.664867 22.651373 3.72588 43.945639 12.855518 66.498313 17.000867 40.663904 7.797205 82.29012 7.303711 123.521542 7.40241 3.701205 0.024675 6.341398 3.158361 9.253012 5.058313 21.220241 17.22294 37.727614 39.33147 58.059566 57.541398 22.182554 17.864482 49.497446 27.586313 72.790362 43.748241 2.862265-5.77388 4.564819-12.016578 6.415422-18.160579 42.933976-0.542843 85.867952-0.814265 128.801927-0.616867-1.332434-6.094651-2.615518-12.189301-3.750554-18.308627 7.550458-0.937639 16.285301-0.863614 22.10853-6.51412 5.403759-5.527133 3.873928-14.015229 0.888289-20.331952-6.93359 1.924627-13.250313 5.502458-20.06053 7.673831-7.747855 1.973976-15.199614-1.825928-22.404626-4.096-16.778795 11.152964-33.55759 22.256578-50.484434 33.162795 1.62853-15.298313 3.429783-30.547277 5.132337-45.820915 1.727229-11.893205-7.254361-22.453976-5.206361-34.39653 3.331084-7.895904 10.437398-13.324337 16.260626-19.344964 16.309976-14.656771 35.23547-28.227855 57.541398-31.188819-1.801253 4.737542-3.627181 9.45041-5.477783 14.163277 10.536096-1.357108 20.89947-4.219373 31.55894-4.56482 4.318072-0.592193 7.476434 2.911614 10.19065 5.675181 6.612819 7.279036 12.263325 15.347663 19.122892 22.404627 5.107663-9.40106 10.906217-18.777446 13.003566-29.412241 2.393446-13.398361 0.764916-27.018795 1.20906-40.515856-3.30641-0.074024-6.56347-0.123373-9.845205-0.197397l0.197398-9.129639h9.82053c-0.345446-16.211277 0.78959-32.496578-0.863614-48.633831-1.554506-12.312675-15.569735-16.680096-20.331952-27.265542-1.603855-3.997301 0.78959-8.068627 2.516819-11.597109m31.213494-42.095036c-5.872578 11.91788-11.399711 24.008482-17.469687 35.852337h9.919229c2.41812-4.540145 4.762217-9.154313 7.007615-13.817831 3.281735 4.244048 5.77388 9.006265 8.117976 13.817831h8.858217c-5.625831-11.86853-10.807518-23.983807-16.43335-35.852337m-74.418891 200.087133c3.873928 5.601157 7.920578 11.103614 11.991903 16.581397-8.340048 0.690892-16.680096 1.20906-25.044819 1.233735 1.036337 2.664867 2.072675 5.30506 3.133687 7.994602-2.41812 5.082988-4.860916 10.165976-7.353061 15.22429 16.532048-3.109012 33.952386-7.081639 47.400097-17.667085 6.637494-4.762217 2.83759-14.484048-1.949301-19.246265-7.599807-7.279036-18.826795-4.096-28.178506-4.120674m121.128096 6.193349c-6.415422 4.984289-3.380434 14.237301 2.220723 18.530699 12.978892 10.807518 30.473253 13.620434 46.783229 15.347662-3.997301-4.392096-7.871229-8.882892-11.621783-13.472385 1.727229-2.911614 3.429783-5.847904 5.157012-8.784193-8.142651-0.246747-16.285301-0.592193-24.378603-1.307759 3.405108-5.798554 6.93359-11.547759 10.462073-17.296964-9.795855 0-21.615036-1.505157-28.622651 6.98294m-592.784964 21.837108c4.688193 5.675181 9.968578 10.856867 14.064578 16.976193-39.898988-1.67788-79.872-2.714217-119.795662-3.824578l-3.109012-5.107663c-0.740241 2.294747-1.455807 4.614169-2.196048 6.908916 24.304578 3.72588 48.510458 7.969928 72.864385 11.44906-0.912964 11.054265-2.270072 22.059181-3.429783 33.064096-17.000867-0.148048-33.97706-0.024675-50.977928-0.049349v4.268723c20.578699 0.049349 41.157398-0.83894 61.736097-1.283084 8.61147 10.462072 17.17359 20.948819 25.78506 31.410891-18.580048 5.72453-37.184771 11.325687-55.690795 17.22294 1.357108 1.011663 4.096 3.059663 5.477783 4.071325 26.278554-4.910265 51.940241-15.767133 79.107084-13.694458-2.122024 8.438747-7.229687 16.334651-15.12559 20.381302-23.095518 11.967229-50.533783 13.49706-72.09947 28.795373 8.290699 1.283084 16.112578-2.46747 23.78641-4.984289 19.122892-7.698506 39.553542-13.571084 60.378988-12.041253 7.007614 0.394795 12.041253 5.872578 17.395662 9.746506-4.860916 5.995952-9.721831 11.967229-14.70612 17.839807 8.438747-3.034988 18.06188-6.686843 26.673349-1.973976 7.920578 3.528482 8.932241 13.176289 10.807518 20.578699 7.723181 0.296096 15.989205 1.233735 23.144868-2.368771 7.624482-4.318072 11.07894-12.880193 13.595759-20.825446-6.810217-0.246747-13.595759-0.592193-20.381302-1.085687 4.021976-4.490795 7.945253-9.055614 11.745157-13.743807l-6.612819-4.244048c-0.888289 1.357108-2.640193 4.046651-3.503807 5.403759-15.619084 0.296096-34.667952-3.034988-41.922314-18.80212 7.723181-3.109012 15.471036-6.119325 23.317591-8.956916-1.579181-2.985639-3.183036-5.971277-4.762217-8.932241-7.624482-0.493494-15.273639-0.567518-22.922795-0.764916 0.592193-5.798554 3.775229-13.990554-2.590844-17.765783-11.942554-3.972627-24.748723-5.132337-36.197783-10.708819 3.479133-5.699855 7.007614-11.350361 10.560771-17.000868-11.86853-6.316723-23.613687-12.929542-35.309494-19.59171 0.83894-0.912964 2.541494-2.788241 3.405109-3.701205 11.720482-4.392096 24.082506-7.550458 36.469205-9.45041 17.296964-0.444145 34.569253 1.505157 51.619469 4.244048 22.478651 3.972627 45.598843 9.203663 64.450314 22.774747-23.959133 2.294747-48.189687 0.542843-72.050121 3.627181 27.191518 6.292048 54.259663 13.102265 81.327807 20.011181-17.296964 1.431133-34.569253 3.010313-51.816867 4.811566 0.222072 0.986988 0.641542 2.960964 0.863614 3.923277 15.54506 1.357108 31.188819 1.036337 46.783229 1.850603-3.010313 2.689542-6.020627 5.30506-9.006265 7.969927 6.144 0.764916 12.288 1.505157 18.407326 2.46747-5.823229 4.170024-12.139952 7.550458-18.209928 11.350362 7.871229 0.345446 15.742458 0.666217 23.589012 1.381783 5.255711-7.501108-0.37012-16.309976-1.085687-24.427952 8.315373-0.666217 16.680096-1.110361 25.044819-1.480482-6.366072-11.02959-13.274988-21.68906-19.739759-32.644627 13.867181 3.528482 27.709687 7.254361 41.576868 10.807519-6.193349-5.897253-13.052916-11.226988-21.022844-14.484049-25.291566-10.906217-52.853205-14.508723-79.748626-19.295614-31.336867-5.77388-58.898506-23.36694-89.963952-30.103133m1000.238265 31.18882c-23.663036 3.947952-47.770217 6.637494-70.347566 15.12559-9.82053 3.750554-18.900819 9.524434-25.933108 17.420337 14.015229-3.183036 27.709687-7.797205 41.774265-10.684144 0.592193 1.085687 1.801253 3.232386 2.393445 4.318072-8.216675 10.141301-17.124241 19.69041-25.464289 29.708337 9.549108 0.074024 19.122892 0.074024 28.696675 0.074024-1.801253 12.337349-3.651855 24.674699-5.527133 37.012049-7.451759 0.197398-15.273639-0.962313-22.379951 1.702554-7.229687 4.663518-5.107663 14.459373-5.675181 21.763084-7.969928-0.024675-15.915181 0-23.885109 0 1.801253 5.576482 3.553157 11.177639 5.033639 16.877494-13.719133 1.357108-27.290217 3.824578-41.009349 5.033639-0.271422 2.763566-0.493494 5.527133-0.690892 8.315373 29.658988-0.148048 59.293301 1.505157 88.952289 1.135036-7.920578-8.98159-15.742458-18.037205-23.589012-27.068144 7.649157 0 15.298313-0.024675 22.972145 0.049349-1.110361-4.540145-5.082988-9.475084-3.010314-14.187952 4.540145-3.947952 10.980241-3.183036 16.532049-3.972626-2.960964-7.895904-5.872578-15.791807-8.685494-23.73706 7.945253-0.074024 15.890506-0.542843 23.860433-0.962314-6.218024-4.046651-12.460723-8.068627-18.333301-12.608771 6.020627-0.567518 12.041253-1.061012 18.06188-1.677879-3.207711-2.566169-6.440096-5.058313-9.697157-7.550458 16.01388-0.740241 32.151133 1.135036 48.041639-1.332434-2.738892-1.727229-5.798554-2.812916-9.03094-2.936289-14.582747-1.431133-29.165494-3.109012-43.748241-4.762217-0.098699-1.184386-0.320771-3.528482-0.444145-4.712867 27.88241-4.737542 55.838843-9.253012 83.647229-14.410024 0.148048-1.283084 0.493494-3.873928 0.666217-5.157012-26.525301 1.727229-53.025928 3.898602-79.600578 4.88559 5.995952-8.438747 14.829494-14.237301 24.551325-17.59306 28.449928-9.845205 58.701108-13.028241 88.656193-14.237301 15.865831-1.455807 31.09012 4.490795 45.722217 9.845204l1.283084 3.380434c-10.412723 7.797205-23.169542 12.362024-34.39653 19.098217 3.109012 6.168675 6.168675 12.362024 9.203663 18.580048-12.436048 4.614169-25.612337 7.35306-37.628916 13.052916-3.553157 4.342747-1.67788 10.412723-2.072675 15.54506-7.377735 4.836241-16.285301 4.762217-24.699373 5.502458 7.229687 4.762217 15.150265 8.290699 22.922795 12.090602-11.325687 16.877494-33.952386 23.120193-52.606458 15.322988 3.577831 5.798554 7.106313 11.621783 10.733494 17.420338-6.242699 0-12.460723 0-18.678747 0.024674 2.541494 7.476434 5.453108 15.569735 12.510072 19.986506 7.35306 4.268723 16.285301 3.331084 24.403277 2.664868 1.357108-7.82188 2.985639-17.22294 10.881543-21.195566 8.488096-3.627181 17.667084 0.074024 26.130506 1.973975-4.318072-4.540145-8.882892-8.808867-13.694458-12.756819 3.429783-6.069976 7.501108-13.373687 15.347662-13.867181 17.395663-1.431133 35.087422 1.751904 51.224675 8.414073 11.152964 4.021976 22.404627 9.672482 34.593928 8.710168-17.864482-12.411373-39.578217-16.211277-59.688096-23.391614-12.608771-3.947952-25.36559-12.065928-27.981109-26.031807 27.314892-1.085687 55.518072 1.776578 80.266795 14.163277 0.962313-1.529831 2.83759-4.589494 3.799904-6.119325-18.950169-6.316723-37.925012-12.534747-56.949205-18.555374 9.845205-8.833542 18.925494-18.580048 29.486265-26.624 19.838458-1.357108 39.898988-0.049349 59.836145-0.616867v-4.194699c-15.915181-0.493494-31.805687-0.912964-47.720868-0.592193-2.714217-10.091952-5.107663-20.233253-7.698506-30.325205 23.589012-4.712867 46.832578-11.49841 70.816386-14.064578 3.824578-0.074024 1.751904-4.836241 0.83894-6.662169-1.850602 2.245398-3.577831 4.540145-5.576482 6.637494-8.117976-1.603855-16.384-0.641542-24.576-0.567518-31.188819 1.307759-62.451663 1.307759-93.615808 3.207711 4.811566-6.168675 9.771181-12.238651 14.854169-18.160578-32.249831 8.167325-60.946506 27.117494-94.059952 32.274506m-485.425349 33.631614c7.106313 17.519036 19.024193 32.817349 32.249831 46.166362 12.436048-13.12694 22.602024-28.104482 32.644627-43.05735-7.476434-16.038554-17.987855-32.101783-33.261494-41.502843-12.362024 11.02959-23.663036 23.885108-31.632964 38.393831m-379.743615 68.669687c5.477783 0.518169 10.955566 1.381783 16.211277 3.084337-0.616867 5.157012-1.505157 10.289349-2.640192 15.372338 8.438747 1.135036 16.902169 2.048 25.390265 2.886939-8.142651 8.833542-16.80347 17.17359-25.390265 25.587663 29.387566-0.271422 58.725783-2.023325 88.113349-2.664868 0.123373-2.664867 0.271422-5.329735 0.41947-7.969927-13.768482-1.159711-27.561639-2.196048-41.305446-3.72588 1.110361-6.144 2.294747-12.288 3.577832-18.407325-7.649157-0.049349-15.273639-0.074024-22.898121 0.049349-0.592193-7.106313 1.505157-16.309976-4.860916-21.368289-6.489446-3.084337-14.113928-1.899952-21.047518-3.232385-0.567518-4.46612-1.061012-8.932241-1.480482-13.398362-6.56347 6.711518-10.560771 15.224289-14.089253 23.78641m276.998169 18.752771c-7.945253 6.612819-16.606072 13.299663-21.170892 22.799422 11.86853-3.405108 23.959133-5.971277 35.877013-9.253012 0.049349 4.860916 0.049349 9.721831 0.074024 14.558072 6.119325-0.814265 12.312675-0.863614 18.456674-0.123374 0.518169-7.673831-2.294747-20.183904 7.550458-22.873445 13.96588-0.542843 28.079807-1.67788 42.045687-0.098699 14.187952 1.751904 17.099566 21.787759 31.904385 22.305927 12.904867 0.37012 25.83441 0.074024 38.763952 0.024675 3.059663-9.006265 7.501108-20.134554 18.037205-22.157879 18.111229-2.023325 36.370506-0.37012 54.531084-0.41947 13.719133 1.011663 16.063229 17.074892 19.937157 27.41359 9.697157-0.592193 19.418988-0.444145 29.140819-0.41947-4.860916-6.045301-9.82053-11.991904-14.829494-17.889156h32.644627c0 4.51547 0 9.055614 0.024675 13.595759 12.312675-0.074024 24.600675 0.098699 36.913349-0.123374-1.529831-8.882892-1.455807-18.85147-7.40241-26.20453-4.268723-5.601157-11.523084-7.007614-18.01253-8.167325-16.309976-2.615518-32.619952-5.132337-48.880578-7.945253-25.291566-4.490795-51.175325-4.490795-76.762988-3.331085-18.604723 6.51412-28.647325 25.612337-44.143036 36.814651-18.654072-14.261976-34.717301-34.02641-58.405012-39.923663-27.166843-6.464771-54.802506 5.379084-76.294169 21.417639m-48.461108 0.986988c-20.702072 12.70747-39.973012 30.522602-48.016964 54.03759-13.645108 0.41947-27.290217-0.024675-40.935326 0.370121-5.403759 0.444145-10.388048-1.776578-15.12559-3.997301 0.172723 7.525783 0.148048 15.051566 0.098699 22.602024 15.471036-1.825928 30.942072-3.72588 46.413108-5.527133-21.368289 37.135422-40.145735 75.948723-65.338602 110.740048-5.823229 6.834892-12.065928 16.482699-22.330603 15.471036-24.551325 0.41947-47.227373-11.720482-65.042506-27.734361 29.264193-0.246747 58.528386-0.024675 87.817253-0.098699 0-24.773398-0.024675-49.52212 0-74.295518-28.153831 0.296096-56.332337 2.023325-84.486168 0.394795-11.251663-0.863614-23.638361-1.751904-32.34853-9.869879-14.015229 0.024675-28.079807-0.690892-42.045687 0.345446-6.785542 2.023325-12.238651 7.575133-19.591711 8.192-28.351229 4.219373-57.097253 0.394795-85.59653 1.283084 0.123373 24.650024 0.049349 49.275373 0.024675 73.925397 26.179855 0.148048 52.335036-0.197398 78.514891 0.197398-17.099566 12.362024-36.000386 23.243566-56.92453 27.339566-13.324337 0.912964-25.118843-6.810217-35.753638-13.86718 0.049349 13.96588 0 27.907084 0.024674 41.872963 12.830843-0.37012 25.809735 0.123373 38.245783 3.577832 4.293398 1.751904 8.364723-1.233735 12.263326-2.664868 26.821398-12.362024 54.062265-23.885108 81.278458-35.358843 3.898602-1.357108 8.290699-3.528482 12.362024-1.381783 26.007133 10.116627 50.114313 24.477301 75.850024 35.260144 20.06053 8.142651 27.216193 30.497928 44.167711 42.465157 36.247133-64.055518 71.902072-128.481157 108.149204-192.512 7.279036-2.83759 15.841157-1.20906 23.638362-1.825928 11.745157 0.222072 24.798072-3.429783 35.260144 3.651856-0.098699-7.599807-0.074024-15.199614-0.074024-22.799422-15.841157 1.20906-31.731663 2.196048-47.572819 3.355759 15.322988-21.68906 31.682313-42.63788 47.350747-64.080193-10.634795 1.899952-21.022843 5.30506-30.275855 10.930892m-359.485687 36.271807c1.67788 4.540145 3.355759 9.080289 5.058313 13.620434H280.057831c0 7.846554 0.024675 15.668434 0.024675 23.514988 13.719133-1.233735 27.512289-0.444145 41.256096-0.764916 0.024675 4.737542 0.049349 9.499759 0.04935 14.237301 12.584096-0.024675 25.143518 0.172723 37.70294-0.123373-0.049349-4.737542-0.024675-9.475084 0.049349-14.212627 40.071711 0.444145 80.143422-0.222072 120.190458 0.789591-0.024675 4.490795-0.024675 9.006265-0.04935 13.521735 12.337349 0.074024 24.674699 0.024675 37.012049 0.049349 0-4.737542 0-9.475084 0.024674-14.212626 11.301012-0.320771 22.602024 1.159711 33.903036 0.049349 3.429783-0.37012 7.501108-0.444145 9.86988-3.429783 3.331084-5.872578 2.319422-12.929542 2.566169-19.394313-15.693108 0-31.361542-1.011663-47.054651-0.666217 3.355759-4.564819 6.760867-9.080289 10.165976-13.595759-17.296964-0.320771-34.569253 1.110361-51.890892 0.641542 1.801253 4.51547 3.602506 9.055614 5.379085 13.595759-40.096386 0.024675-80.192771 0-120.289157 0 1.455807-4.712867 2.88694-9.425735 4.318072-14.163277-15.693108-0.444145-31.312193 1.085687-46.980626 0.542843m417.915373 17.469687c-12.904867 16.630747-25.41494 33.680964-36.44453 51.668819 7.575133 0.024675 15.150265 0 22.725398 0 0 24.304578-0.024675 48.609157 0.024675 72.913735-0.074024 8.636145 0.468819 17.420337-1.455808 25.908434-2.393446 10.684145-11.375036 17.889157-17.247614 26.648674 11.44906-1.727229 23.885108-3.30641 32.990072-11.128289 9.104964-7.846554 12.041253-20.331952 12.954217-31.805686 2.023325-34.470554-2.566169-69.533301 4.836241-103.584386 2.41812-12.312675 13.793157-19.517687 18.555373-30.621301 1.924627-4.219373 3.429783-8.61147 4.910266-13.003566-9.45041 0.049349-18.950169-0.518169-28.400579 0.123373-5.77388 2.516819-9.302361 8.340048-13.447711 12.880193m55.34535-13.12694c1.924627 2.788241 5.30506 5.181687 4.910265 9.006265 0.271422 9.327036-0.074024 18.678747 0.049349 28.005783-11.004916-0.271422-22.94747 1.973976-32.71865-4.392096 0.074024 7.797205 0.074024 15.569735-0.074024 23.342265 8.463422-9.302361 21.837108-4.046651 32.792674-5.35441v28.25253c-10.881542-1.455807-21.787759-2.911614-32.693976-4.096-0.024675 7.673831 0.049349 15.372337 0 23.046169 8.192-9.40106 21.861783-3.799904 32.693976-5.255711v27.734362c-10.980241-0.394795-22.824096 1.998651-32.792674-3.923277 0.148048 7.723181 0.123373 15.446361 0.098698 23.169542 1.480482-1.25841 4.441446-3.72588 5.921928-4.959615 8.907566-0.123373 17.839807-0.098699 26.772048-0.074024 0 10.807518-0.024675 21.590361 0.024675 32.39788-11.054265 0.222072-22.848771 1.776578-32.817349-4.219374 0.098699 7.747855 0.098699 15.495711 0.246746 23.243567 1.480482-1.283084 4.392096-3.849253 5.847904-5.157013 28.647325-0.024675 57.294651 0.024675 85.941976-0.024674 5.30506-0.394795 10.24 1.67788 14.854169 4.120674-0.123373-7.846554-0.074024-15.668434-0.098699-23.490313-1.850602 1.875277-3.701205 3.750554-5.527133 5.625832-10.486747 0.345446-20.973494 0.172723-31.460241 0.197397 0-10.906217-0.024675-21.787759 0-32.693976 12.337349 1.036337 26.081157-3.084337 37.086073 4.170024-0.098699-7.575133-0.098699-15.12559-0.123374-22.700723-10.634795 0.049349-21.26959 0.024675-31.904385 0.024675-0.222072-7.723181-0.666217-15.421687-0.863615-23.144867 10.930892 0.641542 21.861783 1.67788 32.792675 2.442795 0-6.93359 0-13.891855 0.049349-20.825446-9.795855 3.232386-21.368289 8.389398-31.213494 2.664868-8.389398-5.675181-5.255711-17.272289-5.823229-25.83441 12.337349-0.567518 25.809735-2.738892 37.061398 3.725879-0.074024-7.575133-0.098699-15.150265 0-22.725397-8.61147 8.438747-21.442313 3.454458-32.126458 4.737542 0.024675-12.362024-0.024675-24.724048-0.123373-37.086072-15.59441 0.148048-31.188819 0.098699-46.783229 0.049349m384.97465 0c-0.049349 32.496578-0.049349 65.017831 0 97.51441 37.23412-0.542843 74.542265 0.937639 111.727036-0.764916-0.592193-16.852819-1.233735-33.730313-0.394795-50.583132 0.715566-10.190651-1.924627-20.726747 1.505157-30.621302 3.405108-5.72453 8.290699-10.388048 12.534747-15.471036-41.774265-0.098699-83.573205 0.024675-125.372145-0.074024m-301.574168 6.440096c4.318072 3.429783 8.907566 6.51412 13.620433 9.425735-0.78959 41.206747 0.83894 82.388819 0.493494 123.595567-3.109012-0.271422-6.193349-0.518169-9.277686-0.764916 0.024675 7.698506 0.049349 15.421687-0.123374 23.120193 7.624482-4.959614 16.902169-4.194699 25.587663-4.490795 17.839807-0.024675 35.679614-0.024675 53.544096 0.024674-0.049349 10.930892-0.074024 21.886458-0.024675 32.81735 16.211277-3.577831 31.657639-15.076241 32.743326-32.81735 4.490795-0.024675 8.98159-0.049349 13.472385-0.049349 0-5.946602 0-11.86853 0.024675-17.815133-4.762217-0.37012-9.475084-0.641542-14.212626-0.838939 0.024675-27.536964 0-55.049253 0.024674-82.561543 0.172723-17.296964-1.62853-35.284819 5.231036-51.644144-40.367807 0.986988-80.735614 1.406458-121.103421 1.99865m147.085879-0.641542c8.167325 12.041253 16.655422 23.860434 25.242217 35.630265-12.756819-0.83894-25.513639-1.751904-38.295132-2.146698 1.307759 8.512771 1.036337 17.124241 0.962313 25.73571 1.455807-1.159711 4.318072-3.454458 5.749205-4.589494 14.952867 0.098699 29.88106 0 44.833927 0.04935 0 12.362024 0.049349 24.699373-0.049349 37.061397-16.80347-1.406458-34.988723 3.331084-50.706506-4.194698 0.246747 8.932241 0.271422 17.864482 0.024675 26.796723 1.62853-0.962313 4.910265-2.936289 6.538795-3.898603 14.903518-0.641542 29.88106-0.074024 44.809253-0.197397-1.825928 6.489446-3.824578 13.447711-9.104964 18.037204-11.44906 10.338699-27.41359 12.608771-42.144386 14.311326 0.098699 12.115277 0.098699 24.279904 0 36.419855 23.638361-9.475084 46.758554-20.381301 69.977446-30.818699 0.345446-1.159711 1.036337-3.503807 1.357109-4.688193 12.139952 9.253012 24.279904 18.703422 37.801638 25.88376 13.472386 7.205012 28.795373 9.943904 43.920964 10.314024-0.098699-10.881542 0.049349-21.73841-0.172723-32.619952-12.436048-2.812916-25.143518-4.93494-37.086072-9.598458-12.608771-4.984289-20.48-16.75412-27.956434-27.388916 21.787759 0.592193 43.600193 1.061012 65.412627 1.776579-0.345446-8.340048-0.296096-16.655422-0.172723-24.99547-2.368771 1.579181-4.712867 3.183036-7.032289 4.811566-19.468337 0.049349-38.936675-0.024675-58.380338 0.024675-0.049349-12.337349-0.024675-24.699373-0.024674-37.036723 18.06188 0.074024 36.123759-0.123373 54.185638 0.024675 4.120675-0.123373 7.624482 2.442795 11.276337 4.04665-0.172723-9.376386-0.098699-18.752771 0-28.104482-1.554506 1.233735-4.638843 3.701205-6.193349 4.93494-8.858217-0.024675-17.691759-0.024675-26.525301 0 5.033639-10.437398 9.919229-20.924145 14.928193-31.361542-11.424386 0.024675-23.120193-2.220723-34.371856 0.37012-10.807518 5.231036-17.889157 15.520386-27.536964 22.429301-9.228337-8.636145-14.039904-22.379952-26.327903-27.314891-11.523084-1.924627-23.31759 0.37012-34.939374 0.296096m279.73706 23.194217c-0.098699 22.848771-0.049349 45.697542 0.024675 68.546313 12.312675-0.098699 24.625349-0.024675 36.938024-0.049349-0.024675-4.737542-0.024675-9.475084 0-14.187952 21.664386 0 43.353446-0.074024 65.042506 0.04935-4.910265 5.921928-9.795855 11.86853-14.656771 17.815132 15.693108-0.024675 31.361542 1.061012 47.054651 0.641542 0.049349-23.514988-0.074024-47.029976 0.049349-70.544964-0.172723-9.795855 4.416771-18.728096 9.228338-26.920096-40.441831 0.098699-80.883663-0.148048-121.30082 0.098699-11.399711 1.924627-22.89812 12.238651-22.379952 24.551325m-645.49012 13.398362c-2.220723 3.30641-4.318072 6.686843-6.193349 10.19065-23.663036 44.192386-47.671518 88.187373-71.260531 132.404434 25.760386 0.715566 51.693494 3.67653 77.379856 0.542843 15.54506-1.579181 29.658988-10.61012 38.49253-23.342265-1.529831-24.896771-1.135036-49.867566-2.590843-74.764337-10.486747 13.817831-20.430651 28.079807-29.856386 42.637879-1.332434 12.362024 4.219373 26.698024-3.479132 37.653591-9.376386 7.205012-22.305928 1.801253-33.113446 3.158361 2.88694-3.67653 5.823229-7.328386 8.093301-11.424385 21.861783-39.257446 43.37812-78.712289 65.338602-117.895711-14.261976 0.493494-28.548627 1.554506-42.810602 0.83894M1174.515663 551.504193c0.197398 24.748723-0.394795 49.52212 0.320771 74.270843 54.210313 0 108.544-1.899952 162.655614 2.344097 32.077108 1.825928 64.302265 4.318072 96.404048 1.480481 12.904867-1.949301 27.759036-2.960964 37.110747-13.324337-12.288-3.183036-24.576-6.316723-36.839325-9.524434 0.074024-18.407325 0.024675-36.839325 0.024675-55.24665-86.558843-0.024675-173.117687 0-259.67653 0m-291.778314 69.089156c0 6.168675 0 12.362024 0.04935 18.555374-32.422554-1.554506-64.820434-3.67653-97.218313-5.35441 18.629398 13.91653 37.23412 27.88241 55.937542 41.724916 7.501108-4.441446 15.026892-8.858217 22.676048-13.07759 7.40241 4.071325 15.026892 9.573783 23.860434 9.006265 13.620434-8.241349 25.637012-18.950169 37.357494-29.683663 6.218024-6.464771 13.817831-12.288 16.902168-21.047518-19.838458-0.296096-39.70159-0.074024-59.564723-0.123374z" fill="#1296db" p-id="5435"></path><path d="M835.781398 319.019181c5.231036-12.485398 13.12694-23.885108 23.613686-32.545928 7.920578 7.550458 14.952867 16.038554 21.195567 25.020145 3.30641 3.281735 0.715566 7.40241-0.912964 10.708819-4.836241 9.894554-12.189301 18.209928-20.011181 25.83441-10.65947-7.130988-17.420337-18.283952-23.885108-29.017446zM1207.209639 463.26747H1253.474699V491.026506h-46.26506c-0.024675-9.253012-0.024675-18.506024 0-27.759036zM1336.727133 463.26747H1401.522892v18.506024c-21.590361 0.024675-43.180723 0.024675-64.771085 0-0.024675-6.168675-0.024675-12.337349-0.024674-18.506024zM914.789783 467.585542c15.446361-0.024675 30.868048 0 46.289735 0v23.440964h-46.289735v-23.440964zM1336.751807 495.344578H1401.522892c0.024675 6.440096 0 12.880193-0.148049 19.344964-21.541012-1.233735-43.106699-1.036337-64.64771-0.123373 0-6.415422 0-12.806169 0.024674-19.221591zM1207.209639 505.189783c15.421687 0.024675 30.843373 0 46.26506 0.024675V532.973494h-46.26506c-0.024675-9.253012-0.024675-18.506024 0-27.783711zM321.387952 514.442795c23.243566 0.394795 46.487133-1.603855 69.730699 0.246747-0.024675 12.263325 0 24.526651-0.024675 36.789976-23.243566 0-46.487133 0.024675-69.730699 0 0.024675-12.362024 0-24.699373 0.024675-37.036723zM914.839133 513.801253c13.96588 0.098699 27.956434 0.024675 41.922313 0.049349 0 6.366072 0 12.70747 0.049349 19.073543-14.015229 0.098699-28.005783 0.049349-42.021012 0.049349 0-6.390747 0-12.781494 0.04935-19.172241zM437.285012 514.541494c26.352578-0.098699 52.705157 0.123373 79.03306-0.715566 0.024675 12.510072-0.074024 25.020145 0.098699 37.530217-26.352578 0.296096-52.705157 0.024675-79.03306 0.148048-0.074024-12.312675 0.024675-24.650024-0.098699-36.962699zM914.814458 560.73253c15.421687 0 30.868048-0.024675 46.289735 0.024675-0.024675 7.846554-0.024675 15.668434 0 23.514988-15.421687-1.085687-30.868048-0.616867-46.289735-0.715566-0.024675-7.624482-0.024675-15.224289 0-22.824097zM1216.462651 574.303614h27.759036c-0.148048 12.534747 0.493494 25.118843-0.567518 37.653591-9.080289-0.024675-18.135904-0.024675-27.191518-0.024675 0-12.559422-0.024675-25.094169 0-37.628916zM1285.576482 574.402313c12.534747-0.197398 25.069494-0.074024 37.628916-0.098699-0.296096 12.534747 0.518169 25.118843-0.715567 37.628916-12.090602 0-24.181205 0.024675-36.271807-0.024675-0.296096-12.510072-0.986988-24.99547-0.641542-37.505542zM1355.233157 574.303614c13.990554-0.024675 27.981108 0 41.996337 0-0.024675 12.534747-0.024675 25.094169 0 37.628916-14.015229 0-28.030458 0.049349-42.021012-0.049349 0.049349-12.510072 0.024675-25.044819 0.024675-37.579567zM1374.454747 685.364434c1.332434-2.171373 2.738892-4.318072 4.145349-6.415422 0.937639 7.649157 1.579181 15.347663 1.184386 23.070843-4.564819-3.602506-5.058313-10.412723-10.215325-13.398361-5.35441-3.997301-14.632096-5.921928-18.85147 0.616867-2.492145 3.109012-1.603855 8.512771 2.294747 10.116627 8.537446 5.428434 19.789108 6.119325 27.018795 13.669783 6.98294 8.882892 1.110361 23.194217-9.277687 26.327904-9.154313 3.331084-18.01253-2.196048-25.933108-6.144-0.049349 1.998651-0.172723 5.971277-0.222073 7.969927-6.612819-5.477783-2.566169-16.433349-2.393445-24.057831 3.627181 8.660819 8.784193 19.073542 19.838457 18.900819 7.279036 1.875277 14.730795-6.168675 9.795856-12.806168-7.969928-7.895904-22.182554-6.908916-28.153831-17.296964-5.30506-8.808867 0.172723-21.244916 9.845204-24.082506 7.106313-2.196048 14.212627 1.480482 20.924145 3.528482zM363.951807 681.071036c7.82188 0.098699 15.643759-0.542843 23.440964 0.271422 6.538795 0.962313-0.962313 4.663518-3.775229 3.898602-1.924627 16.951518-1.727229 34.248482-0.074024 51.2 8.290699 0.888289 18.333301 2.097349 24.650024-4.589494 2.294747-4.219373 2.196048-9.82053 6.711518-12.633446-0.172723 7.254361-0.937639 14.484048-1.751903 21.689061-17.050217-1.283084-34.988723 2.714217-51.372723-2.714217 2.960964-0.962313 5.921928-1.825928 8.932241-2.664868-0.764916-16.729446 1.727229-33.804337-1.480482-50.287036-1.332434-0.271422-4.046651-0.764916-5.403759-1.036337l0.123373-3.133687zM426.748916 681.61388c16.087904 0.049349 32.151133 0 48.239036 0.024674-1.283084 5.453108 3.232386 14.533398-2.88694 17.346313-1.110361-4.021976-1.480482-8.488096-4.219373-11.81918-7.229687-3.454458-15.54506-2.319422-23.292916-2.270073 0.246747 7.575133 0.222072 15.12559 0.172723 22.700723 4.244048-0.246747 8.759518 0.616867 12.855518-0.764915 2.368771-2.88694 1.061012-8.389398 5.527132-9.277687 0.271422 8.117976 0.246747 16.260627-0.197397 24.378602-0.764916-0.320771-2.294747-0.962313-3.034988-1.283084-0.271422-1.949301-0.83894-5.872578-1.110362-7.82188a53.173976 53.173976 0 0 0-13.965879-1.233734c-0.074024 8.117976-0.074024 16.260627-0.074024 24.378602 8.093301 0.320771 17.494361 2.442795 24.477301-2.83759 2.196048-3.947952 3.232386-8.685494 6.884241-11.671133 0.222072 6.489446-0.468819 12.978892-1.283084 19.443663-16.482699-0.148048-32.965398 0.148048-49.423422-0.172723 1.085687-3.479133 3.553157-5.206361 7.377735-5.206362 1.455807-16.926843 1.110361-34.001735 0.049349-50.928578-1.406458 0.074024-4.194699 0.246747-5.601156 0.345446l-0.493494-3.331084zM516.145349 680.947663c3.67653 0.074024 7.35306 0.172723 11.029591 0.271421 4.786892 17.765783 9.623133 35.556241 15.076241 53.124627 2.541494 1.653205 4.910265 3.528482 7.056964 5.650506-8.932241 0.444145-17.864482 0.37012-26.796723-0.098699 1.085687-2.763566 3.25706-4.071325 6.464771-3.923277a334.588916 334.588916 0 0 0-1.776579-12.288c-6.834892-0.098699-13.669783-0.098699-20.48-0.049349-1.085687 4.145349-2.146699 8.290699-3.158361 12.485397 3.849253-0.715566 6.415422 0.518169 7.649157 3.72588-6.93359 0.493494-13.891855 0.567518-20.825446 0.024674 2.516819-3.923277 8.586795-4.441446 9.573783-9.499759 5.576482-16.408675 10.930892-32.891373 16.186602-49.423421m0.88829 9.450409c-2.319422 9.82053-5.971277 19.246265-8.932241 28.894073 5.847904-0.024675 11.720482-0.024675 17.568385 0.024674-2.714217-9.672482-5.132337-19.468337-8.636144-28.918747zM577.042506 682.477494c7.649157-3.602506 15.619084 1.135036 22.725398 3.898602 0.41947-1.603855 1.283084-4.786892 1.702554-6.366072 6.489446 4.268723 1.67788 14.780145 2.911614 21.615036-4.071325-1.406458-4.194699-6.168675-6.242699-9.302361-3.947952-5.428434-12.312675-8.685494-18.111228-4.120675-5.403759 4.910265-6.56347 12.65812-7.303711 19.567036-0.592193 9.672482-0.098699 20.455325 6.785542 28.030458 5.847904 0.641542 14.336 0.518169 16.235952-6.489446 0.78959-5.231036 3.380434-14.780145-5.477783-12.954217v-3.20771c7.895904-0.074024 15.767133-0.074024 23.663036 0l-0.197398 3.232385-4.564819 0.78959c-1.480482 7.846554-1.011663 15.939855-1.776578 23.885109-3.898602-0.962313-4.93494-4.88559-6.514121-7.945253-9.154313 7.871229-23.613687 10.758169-32.965398 1.653205-13.669783-14.730795-9.993253-43.748241 9.129639-52.285687zM625.108819 681.268434c9.771181-0.41947 19.542361-0.394795 29.338217 0.049349-2.270072 2.294747-4.984289 3.849253-8.167325 4.712868-1.603855 14.311325-1.603855 28.918747-0.148048 43.230072 4.490795 11.054265 24.082506 7.846554 24.99547-4.021976 1.579181-13.225639 0.098699-26.525301-0.197398-39.775614-3.109012-0.468819-6.218024-1.406458-8.142651-4.071326 7.007614-0.641542 14.089253-0.592193 21.072193 0.370121-2.46747 1.480482-4.959614 2.88694-7.476434 4.293397-2.146699 14.286651 1.184386 28.894072-1.850602 43.106699-6.193349 15.051566-32.225157 15.668434-39.454843 1.25841-2.664867-14.410024 0.814265-29.387566-2.171374-43.772916-2.615518-1.801253-5.527133-3.183036-7.797205-5.379084zM695.678458 681.61388c16.309976 0.049349 32.619952 0.024675 48.929928 0.024674-0.074024 6.168675-0.123373 12.362024-0.320772 18.555374-4.441446-3.207711-3.750554-9.647807-7.35306-13.349012-7.130988-3.059663-15.100916-1.875277-22.602024-1.554506 0.024675 7.427084 0 14.854169 0 22.281253 4.318072-0.049349 8.660819-0.074024 13.028241-0.074024 1.381783-3.528482 1.011663-8.660819 5.35441-10.067278 0.222072 8.167325 0.197398 16.334651-0.024675 24.526651-4.293398-1.357108-3.824578-6.242699-4.712867-9.672482-4.540145-0.271422-9.080289-0.41947-13.595759-0.518169-0.123373 8.043952-0.271422 16.137253 0.567518 24.181205 8.019277 1.135036 16.260627 0.986988 23.860433-2.072674 1.62853-4.46612 3.109012-9.178988 6.810217-12.436049 0.049349 6.218024-0.468819 12.411373-1.011662 18.629398-16.482699 1.529831-32.965398-0.616867-49.423422 0.888289-0.41947-5.280386 4.46612-4.712867 8.019277-5.379084-0.123373-16.75412 0.444145-33.532916-0.542843-50.287036-1.62853-0.148048-4.88559-0.468819-6.489446-0.616868l-0.493494-3.059662zM803.038072 682.748916c13.447711-5.231036 29.733012 4.293398 32.447229 18.283951 2.714217 12.238651 1.135036 27.759036-10.264674 35.186121-11.49841 7.994602-29.140819 4.194699-35.827663-8.266024-8.636145-15.17494-3.972627-38.862651 13.645108-45.204048m2.368771 3.775229c-5.403759 3.824578-6.045301 10.955566-6.736192 17.000867-0.764916 9.055614-1.184386 18.580048 2.196048 27.216193 3.30641 7.476434 16.458024 9.351711 19.493012 0.641542 4.392096-11.202313 2.442795-23.811084 1.924626-35.556241 0.098699-8.340048-9.894554-14.681446-16.877494-9.302361zM853.004337 681.56453c16.063229-1.159711 32.175807-0.271422 48.239036-0.542843 0.049349 6.415422 0.098699 12.855518-0.320771 19.27094-3.207711-3.750554-4.51547-8.488096-6.51412-12.880193-5.971277-4.490795-14.015229-2.294747-20.924145-2.664868-0.024675 7.624482 0 15.273639 0.074024 22.922795l9.006266-0.296096c1.455807-3.873928 2.985639-7.82188 5.995951-10.832193 0.542843 8.192 0.345446 16.408675 0.345446 24.62535l-3.25706-0.098699c-1.159711-3.207711 0.246747-9.623133-4.860916-9.475084-1.801253-0.148048-5.428434-0.493494-7.229687-0.641543-0.074024 8.093301-0.123373 16.211277-0.074024 24.329253 2.960964 0.814265 5.453108 2.319422 7.525783 4.540145-9.549108 1.431133-19.172241 0.715566-28.721349 0.123373 1.011663-4.071325 5.231036-3.479133 8.340048-4.244048-0.271422-16.433349-0.024675-32.866699-0.123373-49.300048-2.714217-1.283084-5.477783-2.566169-7.501109-4.836241zM933.863325 681.071036c8.660819 1.184386 19.22159-2.88694 26.722699 2.418121-2.516819 0.912964-5.008964 1.801253-7.501108 2.689542-0.123373 16.532048 0.246747 33.088771-0.271422 49.620819 7.673831 2.146699 16.359325 2.048 23.514988-1.776578 4.638843-3.775229 3.010313-11.621783 8.586795-14.607422-0.271422 7.155663-0.937639 14.286651-1.455807 21.442313-16.680096 0.074024-33.335518-0.074024-49.99094 0.098699 0.074024-3.799904 3.651855-4.46612 6.612819-5.428434 0.567518-16.778795 1.973976-33.927711-0.814265-50.509108-1.332434-0.148048-3.972627-0.493494-5.30506-0.641542l-0.098699-3.30641zM1079.518072 682.600867c7.797205-3.503807 15.742458 1.085687 23.021494 3.72588 0.394795-1.67788 1.20906-4.984289 1.603856-6.662169 5.35441 5.35441 1.381783 14.533398 2.541494 21.417639-3.72588-0.666217-4.021976-4.959614-5.72453-7.649157-3.207711-7.624482-16.260627-10.486747-20.702073-2.516819-6.56347 11.02959-6.020627 24.921446-3.232385 37.036723 1.702554 8.315373 13.12694 10.955566 18.900819 5.107663 4.737542-3.750554 1.998651-10.585446 2.88694-15.742458-1.603855-0.197398-4.811566-0.567518-6.415422-0.764916l0.074024-3.429783c7.994602-0.049349 16.01388-0.049349 24.033157 0l0.172723 3.034988c-1.307759 0.320771-3.923277 0.986988-5.231036 1.307759-1.332434 8.019277-0.863614 16.186602-1.357109 24.279903-3.528482-1.751904-5.082988-5.30506-6.686843-8.636144-8.216675 6.341398-19.863133 10.585446-29.412241 4.416771-18.283952-12.756819-14.878843-45.968964 5.527132-54.92588zM1127.707759 683.069687c16.309976-3.30641 33.261494-0.394795 49.842892-1.579181 0.271422 6.316723 0.098699 12.682795-1.505157 18.85147-2.196048-4.441446-3.331084-9.425735-5.897253-13.669783-7.328386-2.541494-15.224289-1.875277-22.799422-1.554506 0 7.525783 0.024675 15.051566 0.123374 22.577349 4.268723-0.320771 8.833542 0.518169 12.929542-1.036337 1.949301-2.985639 1.307759-7.895904 5.35441-9.178988 0.222072 8.438747 0.296096 16.877494-0.246747 25.316241-2.615518-3.034988-4.096-6.686843-5.107663-10.462072-4.293398-0.493494-8.586795-0.962313-12.855518-1.406458-0.37012 8.56212-0.296096 17.148916 0.567518 25.686361 7.056964-0.222072 14.360675 0.666217 21.146217-1.653205 5.551807-2.541494 3.72588-11.276337 9.943903-12.756819-0.493494 6.267373-1.184386 12.510072-1.801253 18.802121-12.485398-1.381783-24.99547-0.345446-37.480867-0.098699-4.244048-0.444145-9.771181 0.567518-12.312675-3.67653 2.171373-0.41947 6.489446-1.233735 8.66082-1.653205-0.024675-16.581398 0.024675-33.162795-0.024675-49.719518-2.146699-0.715566-6.415422-2.097349-8.537446-2.788241zM1196.303422 681.293108c6.736193 1.110361 17.321639-3.947952 21.417638 3.627181 7.723181 11.991904 15.298313 24.107181 23.465639 35.802988 1.455807-11.967229-0.41947-23.983807-0.098699-35.975711-1.579181 0-4.712867-0.024675-6.292048-0.049349-0.666217-0.814265-1.998651-2.492145-2.664868-3.30641 7.303711-0.444145 14.656771-0.518169 22.009832-0.296096-0.148048 5.058313-4.88559 3.479133-8.24135 3.577831-0.888289 18.777446-0.320771 37.579566-0.345446 56.357012-1.529831-0.345446-4.589494-1.061012-6.119325-1.406458-9.845205-15.372337-20.085205-30.473253-29.757687-45.968963 0.222072 12.608771-0.41947 25.242217 0.320772 37.826313-0.962313 5.527133 4.170024 6.168675 8.364722 6.069976l-0.098698 3.331084c-6.810217-0.024675-13.620434-0.024675-20.405976-0.024675l0.197397-3.281735c4.688193 0.616867 8.438747-2.171373 7.279036-7.130988 0.024675-14.928193 0.098699-29.856386-0.123373-44.759903-3.602506-0.394795-6.56347-1.850602-8.907566-4.392097zM1267.613301 681.021687c12.929542 0.641542 26.229205-1.67788 38.862651 1.776578 13.299663 4.737542 17.074892 20.430651 15.446361 33.064096 0.222072 11.843855-9.327036 22.922795-21.072193 24.279904-11.325687 1.159711-22.725398 0.764916-34.051084 0.542843 1.554506-2.763566 3.997301-4.46612 7.303711-5.082988 0.740241-16.951518 0.148048-33.903036 0.345446-50.829879-1.702554-0.024675-5.082988-0.049349-6.785542-0.074024l-0.04935-3.67653m18.580048 3.528482c0.024675 17.519036-0.172723 35.062747 0.123374 52.581783 7.279036 0.567518 16.507373-0.37012 19.838458-8.019277 4.219373-11.523084 3.923277-24.847422-0.172723-36.370506-2.738892-8.192-12.70747-8.142651-19.789109-8.192z" fill="#1296db" p-id="5436"></path><path d="M752.82506 690.422747c8.56212 6.98294 17.321639 13.793157 25.78506 20.924145 0.172723 5.477783-1.036337 11.325687 1.25841 16.532048 5.157012 6.390747 11.597108 11.621783 16.852819 17.938506 9.178988-0.049349 18.333301 0.049349 27.51229-0.123374 3.034988-7.723181 13.176289-7.747855 19.418988-11.942554 0.271422 4.021976 0.616867 8.093301 0.937638 12.139952 14.854169-0.444145 29.683663-0.986988 44.537831-0.740241-0.444145-4.441446-1.62853-8.759518-3.454457-12.830843 17.296964-4.564819 35.778313-7.673831 50.213012-19.048868-0.098699 6.242699-0.098699 12.485398-0.074024 18.728096-2.911614 0.345446-5.798554 0.715566-8.685494 1.061013 0.024675 4.244048 0.024675 8.488096 0.049349 12.732144 6.810217-0.024675 13.645108-0.024675 20.48 0.024675-9.03094 7.550458-21.220241 14.015229-23.36694 26.722699-1.62853 13.299663 7.77253 24.699373 17.321639 32.743325 12.164627 9.524434 24.057831 19.739759 38.270458 26.179855-31.386217 46.067663-62.797108 92.085976-94.208 138.128964-6.168675 8.488096-11.226988 17.839807-18.308627 25.661687-4.441446-5.601157-7.130988-12.534747-12.337349-17.494362-36.888675-48.535133-73.752675-97.070265-110.863422-145.432674 18.728096-9.499759 37.382169-20.751422 50.287036-37.727615 5.132337-6.267373 4.540145-14.656771 4.836241-22.231903 0.123373-6.119325 0.098699-12.978892-4.046651-17.913832-10.61012-13.07759-27.364241-18.234602-39.997686-28.820048-0.567518-11.745157-1.727229-23.465639-2.418121-35.210795m54.827181 117.377542c-8.192 13.299663-23.342265 19.246265-36.419855 26.500627 26.99412 35.728964 54.062265 71.359229 80.957686 107.162217 5.971277 8.019277 12.633446 15.643759 17.420338 24.501975 1.529831-3.380434 3.232386-6.662169 5.354409-9.697156 27.660337-40.047036 55.123277-80.24212 82.857639-120.239807-7.155663-6.020627-14.780145-11.44906-21.639711-17.790458-12.090602-10.61012-18.629398-25.686361-26.377253-39.430169-2.88694-0.123373-5.77388-0.197398-8.61147-0.246747-2.146699 7.698506-7.969928 17.050217-1.62853 24.329253 9.968578 13.151614 21.343614 25.291566 33.927711 35.975711-20.89947 30.34988-41.675566 60.798458-62.550362 91.148337-24.057831-30.275855-48.239036-60.477687-72.148819-90.852241 11.251663-8.043952 22.774747-16.902169 28.943422-29.658988 4.145349-9.178988 4.959614-19.887807 2.516819-29.634313-2.393446-7.106313-11.02959-8.463422-17.074892-10.980241-0.666217 13.003566 1.875277 27.314892-5.527132 38.912m56.357012-37.28347c-8.636145 2.714217-11.86853 15.12559-5.181687 21.466988 6.144 7.106313 19.369639 4.046651 21.960482-4.959614 3.873928-9.598458-7.328386-20.331952-16.778795-16.507374z" fill="#1296db" p-id="5437"></path><path d="M1286.193349 684.550169c7.081639 0.049349 17.050217 0 19.789109 8.192 4.096 11.523084 4.392096 24.847422 0.172723 36.370506-3.331084 7.649157-12.559422 8.586795-19.838458 8.019277-0.296096-17.519036-0.098699-35.062747-0.123374-52.581783zM517.033639 690.398072c3.503807 9.45041 5.921928 19.246265 8.636144 28.918747-5.847904-0.049349-11.720482-0.049349-17.568385-0.024674 2.960964-9.647807 6.612819-19.073542 8.932241-28.894073z" fill="#1296db" p-id="5438"></path><path d="M1618.388819 0h4.416771l0.246747 2.097349-1.875277 0.912964c-0.715566-0.764916-2.097349-2.270072-2.788241-3.010313z" fill="#1296db" p-id="5439"></path><path d="M1642.644048 0h9.178988l0.394795 1.554506c-2.541494 3.898602-7.525783 1.431133-9.573783-1.554506z" fill="#1296db" p-id="5440"></path><path d="M1675.041928 0h1.135036l-0.394795 0.542843c-0.172723-0.123373-0.567518-0.394795-0.740241-0.542843z" fill="#1296db" p-id="5441"></path><path d="M1697.175133 0h1.085686l-0.394795 0.468819c-0.172723-0.123373-0.518169-0.345446-0.690891-0.468819zM1704.77494 0h1.159711l-0.370121 0.567518c-0.197398-0.148048-0.592193-0.41947-0.78959-0.567518z" fill="#1296db" p-id="5442"></path></svg>